<?xml version="1.0" encoding="UTF-8" standalone="no"?>
<svg
   xmlns:dc="http://purl.org/dc/elements/1.1/"
   xmlns:cc="http://creativecommons.org/ns#"
   xmlns:rdf="http://www.w3.org/1999/02/22-rdf-syntax-ns#"
   xmlns:svg="http://www.w3.org/2000/svg"
   xmlns="http://www.w3.org/2000/svg"
   xmlns:sodipodi="http://sodipodi.sourceforge.net/DTD/sodipodi-0.dtd"
   xmlns:inkscape="http://www.inkscape.org/namespaces/inkscape"
   width="91.966278mm"
   height="91.966278mm"
   viewBox="0 0 91.966278 91.966278"
   version="1.1"
   id="svg8"
   sodipodi:docname="logo-rounded.svg"
   inkscape:version="1.0.1 (3bc2e813f5, 2020-09-07)">
  <defs
     id="defs2" />
  <sodipodi:namedview
     id="base"
     pagecolor="#ffffff"
     bordercolor="#666666"
     borderopacity="1.0"
     inkscape:pageopacity="0.0"
     inkscape:pageshadow="2"
     inkscape:zoom="0.7"
     inkscape:cx="-505.0867"
     inkscape:cy="280.46726"
     inkscape:document-units="mm"
     inkscape:current-layer="layer1"
     inkscape:document-rotation="0"
     showgrid="false"
     inkscape:snap-path-mask="true"
     inkscape:snap-path-clip="true"
     inkscape:window-width="1904"
     inkscape:window-height="1000"
     inkscape:window-x="8"
     inkscape:window-y="35"
     inkscape:window-maximized="0" />
  <metadata
     id="metadata5">
    <rdf:RDF>
      <cc:Work
         rdf:about="">
        <dc:format>image/svg+xml</dc:format>
        <dc:type
           rdf:resource="http://purl.org/dc/dcmitype/StillImage" />
        <dc:title></dc:title>
      </cc:Work>
    </rdf:RDF>
  </metadata>
  <g
     inkscape:label="Layer 1"
     inkscape:groupmode="layer"
     id="layer1"
     transform="translate(-72.558807,-81.526237)">
    <rect
       style="fill:#f1f5f3;fill-opacity:1;stroke:none;stroke-width:0.0567938;stroke-linejoin:round;stroke-opacity:0.4476"
       id="rect1005"
       width="91.966278"
       height="91.966278"
       x="72.558807"
       y="81.526237"
       ry="19.608883" />
    <path
       id="path865"
       style="fill:#93aca7;fill-opacity:0.982195;stroke:none;stroke-width:0.264583px;stroke-linecap:butt;stroke-linejoin:miter;stroke-opacity:1"
       d="m 83.526512,96.755851 c -1.060474,-0.0088 -2.650516,0.284205 -4.301027,1.702221 -1.886291,1.620588 -2.625672,3.614648 -3.251483,5.983608 -0.6258,2.36898 0.970884,8.54424 1.869655,11.57863 0.89876,3.0344 4.995881,10.89886 7.895642,13.33252 2.89976,2.43366 7.042463,4.12843 7.042463,4.12843 -0.401559,11.37316 8.014938,16.12307 16.569018,21.62193 0.93956,0.68333 2.44156,1.58671 4.2329,2.05874 1.54311,0.40663 4.95827,0.65376 4.95827,0.65376 0,0 3.75526,-0.0958 5.24847,-0.65868 1.4233,-0.53653 3.00314,-1.37049 3.9427,-2.05382 11.29162,-6.33057 16.14259,-9.92838 16.5685,-21.62193 0,0 4.14321,-1.69477 7.04298,-4.12843 2.89976,-2.43366 6.99688,-10.29812 7.89564,-13.33252 0.89877,-3.03439 2.49545,-9.20965 1.86965,-11.57863 -0.62581,-2.36896 -1.36519,-4.36302 -3.25148,-5.983608 -1.8863,-1.620589 -3.69354,-1.771542 -4.72168,-1.682068 -1.02814,0.08947 -4.98397,-0.304525 -10.37197,3.587896 -5.38799,3.89242 -6.74533,7.1515 -6.74533,7.1515 -12.01935,-1.17092 -22.99881,-1.19646 -34.95497,0 0,0 -1.357333,-3.25908 -6.745324,-7.1515 -5.387999,-3.892421 -9.343837,-3.498427 -10.371976,-3.587896 -0.128519,-0.01119 -0.26915,-0.01889 -0.420648,-0.02016 z"
       sodipodi:nodetypes="sssssccscsccssssssccssss" />
    <path
       id="path912"
       style="fill:#5a746e;fill-opacity:1;stroke:none;stroke-width:0.304486px;stroke-linecap:butt;stroke-linejoin:miter;stroke-opacity:1"
       d="m 105.33297,123.04833 c -1.369,0.0156 -3.00504,0.68201 -4.74544,2.74615 -3.978079,4.71803 -2.327445,12.74884 -2.327445,12.74884 0.855361,3.62023 6.104645,5.45344 8.399045,5.4953 2.29441,0.0419 4.65904,-1.06859 4.65904,-1.06859 -1.36909,2.47818 -1.65571,4.44795 -1.55493,6.3249 0.10077,1.87693 1.22591,4.62164 3.11834,5.90229 1.74405,1.18023 5.69863,1.24918 5.69863,1.24918 0,0 4.00234,-0.0837 5.66998,-1.36919 1.94105,-1.49618 2.70083,-3.95671 2.80156,-5.83363 0.10077,-1.87694 0.0675,-3.90504 -1.28602,-6.27355 0,0 2.36463,1.11051 4.65904,1.06859 2.2944,-0.042 7.54368,-1.87507 8.39904,-5.4953 0,0 1.65064,-8.03081 -2.32744,-12.74884 -3.97808,-4.71803 -7.41065,-2.13108 -8.35704,-1.17019 -0.94638,0.96092 -4.22649,4.05149 -4.68212,7.88048 -0.4556,3.82901 -0.0669,7.04797 -0.0669,7.04797 l -1.54512,1.99192 c 0,0 3.22275,2.90188 3.2654,5.83177 0.0435,2.98927 -0.64389,4.77168 -2.77897,5.73674 -1.269,0.64673 -3.18106,-0.23486 -3.78971,-0.68847 -0.67663,0.437 -2.56866,1.09184 -3.78972,0.68847 -2.13508,-0.96506 -2.84919,-2.74798 -2.77899,-5.73674 0.0715,-3.04218 3.26542,-5.83177 3.26542,-5.83177 l -1.54511,-1.99192 c 0,0 0.38873,-3.21896 -0.0669,-7.04797 -0.45562,-3.82899 -3.73573,-6.91956 -4.6821,-7.88048 -0.53235,-0.5405 -1.85146,-1.59599 -3.6116,-1.57596 z"
       sodipodi:nodetypes="ssccccscsccccsssccscccsccssss" />
    <path
       id="path885"
       style="fill:#ff7f2a;fill-opacity:1;stroke:none;stroke-width:0.0257218;stroke-linejoin:round;stroke-opacity:0.4476"
       d="m 107.12947,128.76217 a 5.8069768,5.7397689 0 0 0 -5.80689,5.7397 5.8069768,5.7397689 0 0 0 5.80689,5.74021 5.8069768,5.7397689 0 0 0 5.80688,-5.74021 5.8069768,5.7397689 0 0 0 -5.80688,-5.7397 z m 22.79757,0.11885 a 5.8069768,5.7397689 0 0 0 -5.77949,5.7397 5.8069768,5.7397689 0 0 0 5.80688,5.7397 5.8069768,5.7397689 0 0 0 5.80688,-5.7397 5.8069768,5.7397689 0 0 0 -5.80688,-5.7397 5.8069768,5.7397689 0 0 0 -0.0274,0 z" />
    <path
       id="path890"
       style="fill:#2b1100;fill-opacity:1;stroke:none;stroke-width:0.0302988;stroke-linejoin:round;stroke-opacity:0.4476"
       d="m 107.1181,132.06894 a 2.545383,2.5174379 0 0 0 -2.54507,2.51768 2.545383,2.5174379 0 0 0 2.54507,2.51715 2.545383,2.5174379 0 0 0 2.54558,-2.51715 2.545383,2.5174379 0 0 0 -2.54558,-2.51768 z m 22.84718,0.11885 a 2.545383,2.5174379 0 0 0 -2.54506,2.51716 2.545383,2.5174379 0 0 0 2.54506,2.51768 2.545383,2.5174379 0 0 0 2.54558,-2.51768 2.545383,2.5174379 0 0 0 -2.54558,-2.51716 z" />
    <path
       id="path914-3"
       style="fill:#dbe3db;fill-opacity:1;stroke:none;stroke-width:0.302987px;stroke-linecap:butt;stroke-linejoin:miter;stroke-opacity:1"
       d="m 117.03056,143.39055 c -0.5231,0.004 -1.02011,0.0337 -1.27113,0.11894 -0.6694,0.22712 -2.02739,1.25489 -1.52027,4.0939 0.50712,2.83898 4.30279,2.46354 4.30279,2.46354 0,0 3.79567,0.37544 4.30279,-2.46354 0.50712,-2.83901 -0.85087,-3.86678 -1.52027,-4.0939 -0.53777,-0.18246 -2.14798,-0.11341 -2.78252,-0.0781 -0.33835,-0.0188 -0.91387,-0.0454 -1.51139,-0.0409 z" />
    <path
       id="path924-5"
       style="fill:#6c5d53;fill-opacity:1;stroke:none;stroke-width:0.302988px;stroke-linecap:butt;stroke-linejoin:miter;stroke-opacity:1"
       d="m 116.84851,144.81235 c 0,0 -3.08931,2.17787 0.42788,3.75326 -2.04648,-1.7447 -0.42788,-3.75326 -0.42788,-3.75326 z m 3.38687,0 c 0,0 1.6186,2.00856 -0.42788,3.75326 3.51719,-1.57539 0.42788,-3.75326 0.42788,-3.75326 z" />
    <path
       id="path865-6"
       style="fill:#5a746e;fill-opacity:1;stroke:none;stroke-width:0.264583px;stroke-linecap:butt;stroke-linejoin:miter;stroke-opacity:1"
       d="m 83.526254,96.756367 c -1.060479,-0.0089 -2.650519,0.283684 -4.301029,1.701705 -1.886289,1.620598 -2.62567,3.614648 -3.251481,5.983608 -0.6258,2.36898 0.970884,8.54424 1.869655,11.57863 0.898749,3.03441 4.995881,10.89886 7.89564,13.33252 2.899762,2.43366 7.04298,4.12843 7.04298,4.12843 0.02343,-0.43439 0.185098,-0.92547 0.444418,-1.45108 -1.01977,-0.40439 -1.829789,-0.87952 -2.18953,-1.0666 -1.44826,-0.75316 -7.099347,-5.15984 -9.365837,-17.26044 -2.2665,-12.10057 5.304473,-12.28506 6.514333,-12.13518 1.209849,0.14987 4.382402,0.6831 6.945312,2.39779 2.009809,1.75377 6.795775,6.27776 6.544815,19.10632 0.7969,-0.65803 1.35444,-1.0945 1.35444,-1.0945 0.64494,-7.09571 -0.31134,-11.34894 -1.96577,-14.46217 0,0 -1.357342,-3.25908 -6.745322,-7.1515 -5.388012,-3.892426 -9.343837,-3.498395 -10.371979,-3.587896 -0.128518,-0.0116 -0.269144,-0.01864 -0.420645,-0.01964 z m 70.031386,0 c -0.1515,0.0013 -0.29213,0.0085 -0.42065,0.01964 -1.02814,0.0895 -4.98397,-0.304525 -10.37198,3.587893 -5.38798,3.89242 -6.74532,7.1515 -6.74532,7.1515 -1.65443,3.11323 -2.61071,7.36646 -1.96577,14.46217 0,0 0.55754,0.43647 1.35444,1.0945 -0.25095,-12.82855 4.53501,-17.35256 6.54482,-19.10632 2.56291,-1.71469 5.73546,-2.24792 6.94531,-2.39779 1.20986,-0.14988 8.78083,0.0346 6.51433,12.13518 -2.26649,12.1006 -7.91757,16.50728 -9.36583,17.26044 -0.35974,0.18708 -1.16976,0.66221 -2.18953,1.0666 0.25932,0.52561 0.42099,1.01669 0.44441,1.45108 0,0 4.14322,-1.69477 7.04298,-4.12843 2.89976,-2.43366 6.99689,-10.29812 7.89564,-13.33252 0.89878,-3.03439 2.49546,-9.20965 1.86966,-11.57863 -0.62581,-2.36896 -1.36519,-4.36302 -3.25148,-5.983605 -1.65052,-1.418016 -3.24055,-1.710595 -4.30103,-1.701705 z" />
    <path
       id="path969"
       style="fill:#dbe3e2;fill-opacity:1;stroke:none;stroke-width:0.264583px;stroke-linecap:butt;stroke-linejoin:miter;stroke-opacity:1"
       d="m 92.097307,108.26471 c -1.47102,0.0346 -2.856548,0.98433 -3.870047,3.09387 -3.815519,7.94179 5.99395,18.37355 5.99395,18.37355 1.43913,-3.74932 5.97483,-5.94641 5.97483,-5.94641 0.6877,-8.7181 -4.031783,-15.61671 -8.098733,-15.52101 z m 52.889283,0 c -4.06696,-0.0957 -8.78643,6.80291 -8.09874,15.52101 0,0 4.5357,2.19708 5.97483,5.94641 0,0 9.80947,-10.43176 5.99395,-18.37355 -1.01349,-2.10954 -2.39902,-3.05924 -3.87004,-3.09387 z" />
  </g>
</svg>
